<svg xmlns="http://www.w3.org/2000/svg" xmlns:xlink="http://www.w3.org/1999/xlink" width="1920" zoomAndPan="magnify" viewBox="0 0 1440 809.999993" height="1080" preserveAspectRatio="xMidYMid meet" version="1.0"><path fill="#ffb835" d="M -21.40625 207.300781 L -21.40625 203.550781 L -17.65625 203.550781 L -17.65625 207.300781 Z M -21.40625 199.800781 L -21.40625 196.050781 L -17.65625 196.050781 L -17.65625 199.800781 Z M -21.40625 192.300781 L -21.40625 188.550781 L -17.65625 188.550781 L -17.65625 192.300781 Z M -21.40625 184.800781 L -21.40625 181.050781 L -17.65625 181.050781 L -17.65625 184.800781 Z M -21.40625 177.300781 L -21.40625 173.550781 L -17.65625 173.550781 L -17.65625 177.300781 Z M -21.40625 169.800781 L -21.40625 166.050781 L -17.65625 166.050781 L -17.65625 169.800781 Z M -21.40625 162.300781 L -21.40625 158.550781 L -17.65625 158.550781 L -17.65625 162.300781 Z M -21.40625 154.800781 L -21.40625 151.050781 L -17.65625 151.050781 L -17.65625 154.800781 Z M -21.40625 147.300781 L -21.40625 143.550781 L -17.65625 143.550781 L -17.65625 147.300781 Z M -21.40625 139.800781 L -21.40625 136.050781 L -17.65625 136.050781 L -17.65625 139.800781 Z M -21.40625 132.300781 L -21.40625 128.550781 L -17.65625 128.550781 L -17.65625 132.300781 Z M -21.40625 124.800781 L -21.40625 121.050781 L -17.65625 121.050781 L -17.65625 124.800781 Z M -21.40625 117.300781 L -21.40625 113.550781 L -17.65625 113.550781 L -17.65625 117.300781 Z M -21.40625 109.800781 L -21.40625 106.050781 L -17.65625 106.050781 L -17.65625 109.800781 Z M -21.40625 102.300781 L -21.40625 98.550781 L -17.65625 98.550781 L -17.65625 102.300781 Z M -21.40625 94.800781 L -21.40625 91.050781 L -17.65625 91.050781 L -17.65625 94.800781 Z M -21.40625 87.300781 L -21.40625 83.550781 L -17.65625 83.550781 L -17.65625 87.300781 Z M -21.40625 79.800781 L -21.40625 76.050781 L -17.65625 76.050781 L -17.65625 79.800781 Z M -21.40625 72.300781 L -21.40625 68.550781 L -17.65625 68.550781 L -17.65625 72.300781 Z M -21.40625 64.800781 L -21.40625 61.050781 L -17.65625 61.050781 L -17.65625 64.800781 Z M -21.40625 57.300781 L -21.40625 53.550781 L -17.65625 53.550781 L -17.65625 57.300781 Z M -21.40625 49.800781 L -21.40625 46.050781 L -17.65625 46.050781 L -17.65625 49.800781 Z M -21.40625 42.300781 L -21.40625 38.550781 L -17.65625 38.550781 L -17.65625 42.300781 Z M -21.40625 34.800781 L -21.40625 31.050781 L -17.65625 31.050781 L -17.65625 34.800781 Z M -21.40625 27.300781 L -21.40625 23.550781 L -17.65625 23.550781 L -17.65625 27.300781 Z M -21.40625 19.800781 L -21.40625 16.050781 L -17.65625 16.050781 L -17.65625 19.800781 Z M -21.722656 12.703125 C -21.972656 11.652344 -22.363281 10.65625 -22.890625 9.710938 L -19.621094 7.875 C -18.921875 9.125 -18.40625 10.445312 -18.074219 11.839844 Z M -24.851562 7.140625 C -25.625 6.371094 -26.484375 5.722656 -27.4375 5.199219 L -25.621094 1.914062 C -24.367188 2.609375 -23.226562 3.464844 -22.207031 4.476562 Z M -30.4375 4.046875 C -31.296875 3.847656 -32.175781 3.75 -33.070312 3.75 C -33.289062 3.75 -33.503906 3.757812 -33.722656 3.769531 L -33.925781 0.0234375 C -33.640625 0.0078125 -33.355469 0 -33.070312 0 C -31.890625 0 -30.730469 0.132812 -29.59375 0.394531 Z M -36.898438 4.394531 C -37.925781 4.75 -38.882812 5.242188 -39.773438 5.867188 L -41.929688 2.800781 C -40.753906 1.972656 -39.488281 1.320312 -38.128906 0.851562 Z M -42.132812 8.074219 C -42.820312 8.921875 -43.378906 9.851562 -43.808594 10.851562 L -47.257812 9.386719 C -46.695312 8.058594 -45.957031 6.832031 -45.046875 5.710938 Z M -44.640625 13.949219 C -44.699219 14.433594 -44.730469 14.921875 -44.730469 15.414062 L -44.730469 17.511719 L -48.480469 17.511719 L -48.480469 15.414062 C -48.480469 14.765625 -48.441406 14.121094 -48.363281 13.484375 Z M -44.730469 21.261719 L -44.730469 25.011719 L -48.480469 25.011719 L -48.480469 21.261719 Z M -44.730469 28.761719 L -44.730469 32.511719 L -48.480469 32.511719 L -48.480469 28.761719 Z M -44.730469 36.261719 L -44.730469 40.011719 L -48.480469 40.011719 L -48.480469 36.261719 Z M -44.730469 43.761719 L -44.730469 47.511719 L -48.480469 47.511719 L -48.480469 43.761719 Z M -44.730469 51.261719 L -44.730469 55.011719 L -48.480469 55.011719 L -48.480469 51.261719 Z M -44.730469 58.761719 L -44.730469 62.511719 L -48.480469 62.511719 L -48.480469 58.761719 Z M -44.589844 66.035156 C -44.445312 67.152344 -44.191406 68.246094 -43.824219 69.3125 L -47.371094 70.527344 C -47.820312 69.222656 -48.132812 67.886719 -48.308594 66.515625 Z M -42.417969 72.371094 C -41.847656 73.347656 -41.183594 74.253906 -40.429688 75.097656 L -43.222656 77.597656 C -44.144531 76.570312 -44.953125 75.460938 -45.652344 74.273438 Z M -37.9375 77.375 C -37.03125 78.050781 -36.070312 78.628906 -35.046875 79.109375 L -36.648438 82.503906 C -37.894531 81.914062 -39.074219 81.207031 -40.183594 80.378906 Z M -31.871094 80.234375 C -30.777344 80.5 -29.667969 80.65625 -28.535156 80.703125 L -28.683594 84.449219 C -30.066406 84.394531 -31.425781 84.203125 -32.761719 83.878906 Z M -24.84375 80.714844 L -21.09375 80.714844 L -21.09375 84.464844 L -24.84375 84.464844 Z M -17.34375 80.714844 L -13.59375 80.714844 L -13.59375 84.464844 L -17.34375 84.464844 Z M -9.84375 80.714844 L -6.09375 80.714844 L -6.09375 84.464844 L -9.84375 84.464844 Z M -2.34375 80.714844 L 1.40625 80.714844 L 1.40625 84.464844 L -2.34375 84.464844 Z M 5.15625 80.714844 L 8.90625 80.714844 L 8.90625 84.464844 L 5.15625 84.464844 Z M 12.65625 80.714844 L 16.40625 80.714844 L 16.40625 84.464844 L 12.65625 84.464844 Z M 20.15625 80.714844 L 23.90625 80.714844 L 23.90625 84.464844 L 20.15625 84.464844 Z M 27.65625 80.714844 L 31.40625 80.714844 L 31.40625 84.464844 L 27.65625 84.464844 Z M 35.15625 80.714844 L 38.90625 80.714844 L 38.90625 84.464844 L 35.15625 84.464844 Z M 42.65625 80.714844 L 46.40625 80.714844 L 46.40625 84.464844 L 42.65625 84.464844 Z M 50.15625 80.714844 L 53.90625 80.714844 L 53.90625 84.464844 L 50.15625 84.464844 Z M 57.65625 80.714844 L 61.40625 80.714844 L 61.40625 84.464844 L 57.65625 84.464844 Z M 65.15625 80.714844 L 68.90625 80.714844 L 68.90625 84.464844 L 65.15625 84.464844 Z M 72.65625 80.714844 L 76.40625 80.714844 L 76.40625 84.464844 L 72.65625 84.464844 Z M 80.15625 80.714844 L 83.90625 80.714844 L 83.90625 84.464844 L 80.15625 84.464844 Z M 87.65625 80.714844 L 91.40625 80.714844 L 91.40625 84.464844 L 87.65625 84.464844 Z M 95.15625 80.714844 L 98.90625 80.714844 L 98.90625 84.464844 L 95.15625 84.464844 Z M 102.65625 80.714844 L 106.40625 80.714844 L 106.40625 84.464844 L 102.65625 84.464844 Z M 110.15625 80.714844 L 113.90625 80.714844 L 113.90625 84.464844 L 110.15625 84.464844 Z M 117.65625 80.714844 L 121.40625 80.714844 L 121.40625 84.464844 L 117.65625 84.464844 Z M 125.15625 80.714844 L 128.90625 80.714844 L 128.90625 84.464844 L 125.15625 84.464844 Z M 132.65625 80.714844 L 136.40625 80.714844 L 136.40625 84.464844 L 132.65625 84.464844 Z M 132.65625 80.714844 " fill-opacity="1" fill-rule="nonzero"/><path stroke-linecap="round" transform="matrix(0.75, 0, 0, 0.75, -48.481285, 0.00002)" fill="none" stroke-linejoin="round" d="M 260.964643 110.119771 L 253.464643 102.61977 L 245.964642 110.119771 L 253.464643 117.619771 Z M 260.964643 110.119771 " stroke="#ffb835" stroke-width="5" stroke-opacity="1" stroke-miterlimit="4"/><path fill="#ffb835" d="M 150.992188 99.132812 L 150.992188 102.882812 L 147.242188 102.882812 L 147.242188 99.132812 Z M 150.992188 106.632812 L 150.992188 110.382812 L 147.242188 110.382812 L 147.242188 106.632812 Z M 150.992188 114.132812 L 150.992188 117.882812 L 147.242188 117.882812 L 147.242188 114.132812 Z M 150.992188 121.632812 L 150.992188 125.382812 L 147.242188 125.382812 L 147.242188 121.632812 Z M 150.992188 129.132812 L 150.992188 132.882812 L 147.242188 132.882812 L 147.242188 129.132812 Z M 150.992188 136.632812 L 150.992188 140.382812 L 147.242188 140.382812 L 147.242188 136.632812 Z M 150.992188 144.132812 L 150.992188 147.882812 L 147.242188 147.882812 L 147.242188 144.132812 Z M 150.992188 151.632812 L 150.992188 155.382812 L 147.242188 155.382812 L 147.242188 151.632812 Z M 150.992188 159.132812 L 150.992188 162.882812 L 147.242188 162.882812 L 147.242188 159.132812 Z M 150.992188 166.632812 L 150.992188 167.210938 C 150.992188 168.175781 151.070312 169.128906 151.230469 170.070312 L 147.535156 170.699219 C 147.339844 169.550781 147.242188 168.386719 147.242188 167.210938 L 147.242188 166.632812 Z M 152.128906 173.316406 C 152.535156 174.367188 153.046875 175.367188 153.65625 176.320312 L 150.503906 178.347656 C 149.753906 177.183594 149.132812 175.960938 148.632812 174.671875 Z M 155.757812 178.960938 C 156.542969 179.773438 157.40625 180.5 158.335938 181.140625 L 156.214844 184.230469 C 155.078125 183.453125 154.027344 182.566406 153.066406 181.574219 Z M 161.296875 182.757812 C 162.335938 183.199219 163.410156 183.53125 164.515625 183.753906 L 163.777344 187.429688 C 162.421875 187.15625 161.109375 186.75 159.835938 186.214844 Z M 167.878906 184.085938 L 171.628906 184.085938 L 171.628906 187.835938 L 167.878906 187.835938 Z M 175.378906 184.085938 L 179.128906 184.085938 L 179.128906 187.835938 L 175.378906 187.835938 Z M 182.878906 184.085938 L 186.628906 184.085938 L 186.628906 187.835938 L 182.878906 187.835938 Z M 190.378906 184.085938 L 194.128906 184.085938 L 194.128906 187.835938 L 190.378906 187.835938 Z M 197.878906 184.085938 L 201.628906 184.085938 L 201.628906 187.835938 L 197.878906 187.835938 Z M 205.378906 184.085938 L 209.128906 184.085938 L 209.128906 187.835938 L 205.378906 187.835938 Z M 212.878906 184.085938 L 216.628906 184.085938 L 216.628906 187.835938 L 212.878906 187.835938 Z M 220.378906 184.085938 L 224.128906 184.085938 L 224.128906 187.835938 L 220.378906 187.835938 Z M 227.878906 184.085938 L 231.628906 184.085938 L 231.628906 187.835938 L 227.878906 187.835938 Z M 235.378906 184.085938 L 239.128906 184.085938 L 239.128906 187.835938 L 235.378906 187.835938 Z M 242.878906 184.085938 L 246.628906 184.085938 L 246.628906 187.835938 L 242.878906 187.835938 Z M 250.378906 184.085938 L 254.128906 184.085938 L 254.128906 187.835938 L 250.378906 187.835938 Z M 257.878906 184.085938 L 261.628906 184.085938 L 261.628906 187.835938 L 257.878906 187.835938 Z M 265.378906 184.085938 L 269.128906 184.085938 L 269.128906 187.835938 L 265.378906 187.835938 Z M 272.878906 184.085938 L 274.78125 184.085938 L 274.78125 187.835938 L 272.878906 187.835938 Z M 272.878906 184.085938 " fill-opacity="1" fill-rule="nonzero"/><path stroke-linecap="round" transform="matrix(0.75, 0, 0, 0.75, 147.240599, 86.947127)" fill="none" stroke-linejoin="round" d="M 2.502118 2.497581 L 10.002119 9.997581 L 2.502118 17.497582 L -4.997882 9.997581 Z M 2.502118 2.497581 " stroke="#ffb835" stroke-width="5" stroke-opacity="1" stroke-miterlimit="4"/><path stroke-linecap="round" transform="matrix(0.75, 0, 0, 0.75, 147.240599, 86.947127)" fill="none" stroke-linejoin="round" d="M 183.804211 132.018421 L 176.30421 124.51842 L 168.80421 132.018421 L 176.30421 139.518421 Z M 183.804211 132.018421 " stroke="#ffb835" stroke-width="5" stroke-opacity="1" stroke-miterlimit="4"/><path fill="#ffb835" d="M 391.207031 145.371094 L 391.207031 145.257812 C 391.207031 145.746094 391.378906 146.160156 391.722656 146.503906 C 392.066406 146.851562 392.484375 147.023438 392.96875 147.023438 L 389.503906 147.023438 L 389.503906 143.273438 L 392.96875 143.273438 C 393.519531 143.273438 393.988281 143.464844 394.375 143.855469 C 394.761719 144.242188 394.957031 144.710938 394.957031 145.257812 L 394.957031 145.371094 Z M 385.753906 147.023438 L 382.003906 147.023438 L 382.003906 143.273438 L 385.753906 143.273438 Z M 378.253906 147.023438 L 374.503906 147.023438 L 374.503906 143.273438 L 378.253906 143.273438 Z M 370.753906 147.023438 L 367.003906 147.023438 L 367.003906 143.273438 L 370.753906 143.273438 Z M 363.253906 147.023438 L 359.503906 147.023438 L 359.503906 143.273438 L 363.253906 143.273438 Z M 355.753906 147.023438 L 352.003906 147.023438 L 352.003906 143.273438 L 355.753906 143.273438 Z M 348.253906 147.023438 L 344.503906 147.023438 L 344.503906 143.273438 L 348.253906 143.273438 Z M 340.753906 147.023438 L 337.003906 147.023438 L 337.003906 143.273438 L 340.753906 143.273438 Z M 333.253906 147.023438 L 329.503906 147.023438 L 329.503906 143.273438 L 333.253906 143.273438 Z M 325.753906 147.023438 L 322.003906 147.023438 L 322.003906 143.273438 L 325.753906 143.273438 Z M 318.632812 147.339844 C 317.523438 147.558594 316.449219 147.886719 315.40625 148.320312 L 313.960938 144.863281 C 315.234375 144.328125 316.550781 143.929688 317.90625 143.660156 Z M 312.441406 149.929688 C 311.507812 150.566406 310.644531 151.289062 309.851562 152.097656 L 307.171875 149.472656 C 308.140625 148.484375 309.191406 147.605469 310.335938 146.828125 Z M 307.746094 154.730469 C 307.128906 155.679688 306.617188 156.679688 306.203125 157.730469 L 302.710938 156.359375 C 303.21875 155.074219 303.84375 153.851562 304.597656 152.691406 Z M 305.292969 160.972656 C 305.125 161.9375 305.039062 162.910156 305.039062 163.898438 L 305.039062 164.398438 L 301.289062 164.398438 L 301.289062 163.898438 C 301.289062 162.695312 301.394531 161.503906 301.597656 160.328125 Z M 305.039062 168.148438 L 305.039062 171.898438 L 301.289062 171.898438 L 301.289062 168.148438 Z M 305.039062 175.648438 L 305.039062 179.398438 L 301.289062 179.398438 L 301.289062 175.648438 Z M 304.960938 183.488281 C 304.769531 184.578125 304.285156 185.511719 303.5 186.296875 C 302.835938 186.960938 302.050781 187.414062 301.140625 187.65625 L 300.175781 184.035156 C 300.433594 183.964844 300.660156 183.835938 300.851562 183.644531 C 301.074219 183.421875 301.214844 183.152344 301.269531 182.839844 Z M 296.890625 187.835938 L 296.40625 187.835938 L 296.40625 184.085938 L 296.890625 184.085938 Z M 296.890625 187.835938 " fill-opacity="1" fill-rule="nonzero"/><path stroke-linecap="round" transform="matrix(0.75, 0, 0, 0.75, 284.219114, 133.184735)" fill="none" stroke-linejoin="round" d="M 145.150564 2.498479 L 152.650565 9.998479 L 145.150564 17.498479 L 137.650564 9.998479 Z M 145.150564 2.498479 " stroke="#ffb835" stroke-width="5" stroke-opacity="1" stroke-miterlimit="4"/><path stroke-linecap="round" transform="matrix(0.75, 0, 0, 0.75, 284.219114, 133.184735)" fill="none" stroke-linejoin="round" d="M 2.499515 70.368274 L 9.999516 77.868274 L 17.499516 70.368274 L 9.999516 62.868273 Z M 2.499515 70.368274 " stroke="#ffb835" stroke-width="5" stroke-opacity="1" stroke-miterlimit="4"/><path fill="#ffb835" d="M 408.902344 146.390625 L 412.652344 146.390625 L 412.652344 150.140625 L 408.902344 150.140625 Z M 416.402344 146.390625 L 420.152344 146.390625 L 420.152344 150.140625 L 416.402344 150.140625 Z M 423.902344 146.390625 L 427.652344 146.390625 L 427.652344 150.140625 L 423.902344 150.140625 Z M 431.402344 146.390625 L 435.152344 146.390625 L 435.152344 150.140625 L 431.402344 150.140625 Z M 438.902344 146.390625 L 442.652344 146.390625 L 442.652344 150.140625 L 438.902344 150.140625 Z M 446.402344 146.390625 L 450.152344 146.390625 L 450.152344 150.140625 L 446.402344 150.140625 Z M 453.902344 146.390625 L 457.652344 146.390625 L 457.652344 150.140625 L 453.902344 150.140625 Z M 461.402344 146.390625 L 465.152344 146.390625 L 465.152344 150.140625 L 461.402344 150.140625 Z M 468.902344 146.390625 L 472.652344 146.390625 L 472.652344 150.140625 L 468.902344 150.140625 Z M 476.402344 146.390625 L 480.152344 146.390625 L 480.152344 150.140625 L 476.402344 150.140625 Z M 484.203125 146.664062 C 485.570312 146.890625 486.898438 147.253906 488.191406 147.757812 L 486.824219 151.253906 C 485.777344 150.84375 484.699219 150.546875 483.589844 150.363281 Z M 491.867188 149.65625 C 493.015625 150.40625 494.078125 151.269531 495.046875 152.242188 L 495.074219 152.265625 L 492.421875 154.917969 L 492.398438 154.894531 C 491.609375 154.105469 490.746094 153.402344 489.8125 152.792969 Z M 497.675781 155.488281 C 498.429688 156.648438 499.058594 157.878906 499.558594 159.171875 L 496.058594 160.519531 C 495.652344 159.472656 495.144531 158.472656 494.53125 157.527344 Z M 500.640625 163.160156 C 500.8125 164.222656 500.898438 165.289062 500.898438 166.363281 C 500.898438 166.617188 500.902344 166.871094 500.917969 167.125 L 497.171875 167.300781 C 497.15625 166.988281 497.148438 166.675781 497.148438 166.363281 C 497.148438 165.492188 497.078125 164.625 496.9375 163.761719 Z M 501.421875 170.445312 C 501.703125 171.535156 502.09375 172.582031 502.597656 173.589844 L 499.238281 175.261719 C 498.621094 174.019531 498.140625 172.730469 497.789062 171.390625 Z M 504.394531 176.425781 C 504.785156 176.917969 505.203125 177.386719 505.648438 177.835938 C 506 178.1875 506.367188 178.519531 506.75 178.839844 L 504.351562 181.722656 C 503.882812 181.332031 503.429688 180.917969 502.996094 180.484375 C 502.449219 179.9375 501.933594 179.359375 501.453125 178.75 Z M 509.539062 180.707031 C 510.535156 181.230469 511.574219 181.648438 512.65625 181.957031 L 511.621094 185.5625 C 510.289062 185.183594 509.011719 184.667969 507.789062 184.019531 Z M 515.960938 182.542969 C 516.347656 182.570312 516.734375 182.585938 517.121094 182.585938 L 519.582031 182.585938 L 519.582031 186.335938 L 517.121094 186.335938 C 516.644531 186.335938 516.167969 186.316406 515.691406 186.285156 Z M 523.332031 182.585938 L 527.082031 182.585938 L 527.082031 186.335938 L 523.332031 186.335938 Z M 530.832031 182.585938 L 534.582031 182.585938 L 534.582031 186.335938 L 530.832031 186.335938 Z M 538.332031 182.585938 L 542.082031 182.585938 L 542.082031 186.335938 L 538.332031 186.335938 Z M 545.832031 182.585938 L 549.582031 182.585938 L 549.582031 186.335938 L 545.832031 186.335938 Z M 553.332031 182.585938 L 557.082031 182.585938 L 557.082031 186.335938 L 553.332031 186.335938 Z M 560.832031 182.585938 L 564.582031 182.585938 L 564.582031 186.335938 L 560.832031 186.335938 Z M 568.332031 182.585938 L 572.082031 182.585938 L 572.082031 186.335938 L 568.332031 186.335938 Z M 575.832031 182.585938 L 579.582031 182.585938 L 579.582031 186.335938 L 575.832031 186.335938 Z M 583.332031 182.585938 L 587.082031 182.585938 L 587.082031 186.335938 L 583.332031 186.335938 Z M 583.332031 182.585938 " fill-opacity="1" fill-rule="nonzero"/><path stroke-linecap="round" transform="matrix(0.75, 0, 0, 0.75, 396.713425, 146.392191)" fill="none" stroke-linejoin="round" d="M 2.501892 2.497912 L 10.001893 -5.002088 L 17.501893 2.497912 L 10.001893 9.997912 Z M 2.501892 2.497912 " stroke="#ffb835" stroke-width="5" stroke-opacity="1" stroke-miterlimit="4"/><path stroke-linecap="round" transform="matrix(0.75, 0, 0, 0.75, 396.713425, 146.392191)" fill="none" stroke-linejoin="round" d="M 270.324822 50.758331 L 262.824822 43.258331 L 255.324822 50.758331 L 262.824822 58.258332 Z M 270.324822 50.758331 " stroke="#ffb835" stroke-width="5" stroke-opacity="1" stroke-miterlimit="4"/><path fill="#ffb835" d="M 703.832031 143.871094 L 703.832031 143.757812 C 703.832031 144.246094 704.003906 144.660156 704.351562 145.003906 C 704.695312 145.351562 705.109375 145.523438 705.597656 145.523438 L 702.132812 145.523438 L 702.132812 141.773438 L 705.597656 141.773438 C 706.144531 141.773438 706.613281 141.964844 707 142.355469 C 707.390625 142.742188 707.582031 143.210938 707.582031 143.757812 L 707.582031 143.871094 Z M 698.382812 145.523438 L 694.632812 145.523438 L 694.632812 141.773438 L 698.382812 141.773438 Z M 690.882812 145.523438 L 687.132812 145.523438 L 687.132812 141.773438 L 690.882812 141.773438 Z M 683.382812 145.523438 L 679.632812 145.523438 L 679.632812 141.773438 L 683.382812 141.773438 Z M 675.882812 145.523438 L 672.132812 145.523438 L 672.132812 141.773438 L 675.882812 141.773438 Z M 668.382812 145.523438 L 664.632812 145.523438 L 664.632812 141.773438 L 668.382812 141.773438 Z M 660.882812 145.523438 L 657.132812 145.523438 L 657.132812 141.773438 L 660.882812 141.773438 Z M 653.382812 145.523438 L 649.632812 145.523438 L 649.632812 141.773438 L 653.382812 141.773438 Z M 645.882812 145.523438 L 642.132812 145.523438 L 642.132812 141.773438 L 645.882812 141.773438 Z M 638.382812 145.523438 L 634.632812 145.523438 L 634.632812 141.773438 L 638.382812 141.773438 Z M 631.257812 145.839844 C 630.148438 146.058594 629.074219 146.386719 628.035156 146.820312 L 626.585938 143.363281 C 627.859375 142.828125 629.175781 142.429688 630.53125 142.160156 Z M 625.066406 148.429688 C 624.132812 149.066406 623.269531 149.789062 622.480469 150.597656 L 619.796875 147.972656 C 620.765625 146.984375 621.820312 146.105469 622.960938 145.328125 Z M 620.371094 153.230469 C 619.753906 154.179688 619.242188 155.179688 618.828125 156.230469 L 615.339844 154.859375 C 615.84375 153.574219 616.472656 152.351562 617.222656 151.191406 Z M 617.917969 159.472656 C 617.75 160.4375 617.667969 161.410156 617.667969 162.398438 L 617.667969 162.898438 L 613.917969 162.898438 L 613.917969 162.398438 C 613.917969 161.195312 614.019531 160.003906 614.226562 158.828125 Z M 617.667969 166.648438 L 617.667969 170.398438 L 613.917969 170.398438 L 613.917969 166.648438 Z M 617.667969 174.148438 L 617.667969 177.898438 L 613.917969 177.898438 L 613.917969 174.148438 Z M 617.667969 181.648438 L 617.667969 183.324219 C 617.667969 185.332031 616.664062 186.335938 614.65625 186.335938 L 614.320312 186.335938 L 614.320312 182.585938 L 614.65625 182.585938 C 614.164062 182.585938 613.917969 182.832031 613.917969 183.324219 L 613.917969 181.648438 Z M 617.667969 181.648438 " fill-opacity="1" fill-rule="nonzero"/><path stroke-linecap="round" transform="matrix(0.75, 0, 0, 0.75, 601.333152, 131.684735)" fill="none" stroke-linejoin="round" d="M 139.165179 2.498478 L 146.66518 9.998479 L 139.165179 17.498479 L 131.665179 9.998479 Z M 139.165179 2.498478 " stroke="#ffb835" stroke-width="5" stroke-opacity="1" stroke-miterlimit="4"/><path stroke-linecap="round" transform="matrix(0.75, 0, 0, 0.75, 601.333152, 131.684735)" fill="none" stroke-linejoin="round" d="M 2.498506 70.368274 L 9.998506 77.868274 L 17.498507 70.368274 L 9.998506 62.868273 Z M 2.498506 70.368274 " stroke="#ffb835" stroke-width="5" stroke-opacity="1" stroke-miterlimit="4"/><path fill="#ffb835" d="M 721.164062 146.390625 L 724.914062 146.390625 L 724.914062 150.140625 L 721.164062 150.140625 Z M 728.664062 146.390625 L 732.414062 146.390625 L 732.414062 150.140625 L 728.664062 150.140625 Z M 736.164062 146.390625 L 739.914062 146.390625 L 739.914062 150.140625 L 736.164062 150.140625 Z M 743.664062 146.390625 L 747.414062 146.390625 L 747.414062 150.140625 L 743.664062 150.140625 Z M 751.164062 146.390625 L 754.914062 146.390625 L 754.914062 150.140625 L 751.164062 150.140625 Z M 758.664062 146.390625 L 762.414062 146.390625 L 762.414062 150.140625 L 758.664062 150.140625 Z M 766.164062 146.390625 L 769.914062 146.390625 L 769.914062 150.140625 L 766.164062 150.140625 Z M 773.664062 146.390625 L 777.414062 146.390625 L 777.414062 150.140625 L 773.664062 150.140625 Z M 781.164062 146.390625 L 784.914062 146.390625 L 784.914062 150.140625 L 781.164062 150.140625 Z M 788.664062 146.390625 L 792.414062 146.390625 L 792.414062 150.140625 L 788.664062 150.140625 Z M 796.390625 146.527344 C 797.769531 146.691406 799.117188 147 800.433594 147.457031 L 799.199219 151 C 798.144531 150.632812 797.058594 150.382812 795.945312 150.25 Z M 804.183594 149.234375 C 805.371094 149.964844 806.464844 150.8125 807.464844 151.78125 L 804.863281 154.480469 C 804.054688 153.699219 803.175781 153.019531 802.21875 152.429688 Z M 810.128906 154.972656 C 810.898438 156.132812 811.535156 157.359375 812.039062 158.660156 L 808.542969 160.015625 C 808.140625 158.96875 807.625 157.980469 807.003906 157.046875 Z M 813.117188 162.667969 C 813.265625 163.644531 813.34375 164.625 813.34375 165.613281 C 813.34375 165.941406 813.351562 166.265625 813.375 166.589844 L 809.632812 166.828125 C 809.605469 166.421875 809.59375 166.019531 809.59375 165.613281 C 809.59375 164.816406 809.53125 164.027344 809.410156 163.242188 Z M 813.941406 169.882812 C 814.253906 170.957031 814.671875 171.988281 815.207031 172.972656 L 811.90625 174.757812 C 811.246094 173.535156 810.722656 172.253906 810.339844 170.917969 Z M 817.101562 175.722656 C 817.347656 176.007812 817.605469 176.285156 817.875 176.554688 C 818.398438 177.078125 818.960938 177.566406 819.554688 178.007812 L 817.3125 181.011719 C 816.570312 180.460938 815.875 179.859375 815.222656 179.207031 C 814.890625 178.875 814.570312 178.527344 814.261719 178.171875 Z M 822.429688 179.707031 C 823.453125 180.167969 824.511719 180.515625 825.605469 180.75 L 824.828125 184.417969 C 823.46875 184.128906 822.152344 183.699219 820.882812 183.125 Z M 828.949219 181.085938 L 832.699219 181.085938 L 832.699219 184.835938 L 828.949219 184.835938 Z M 836.449219 181.085938 L 840.199219 181.085938 L 840.199219 184.835938 L 836.449219 184.835938 Z M 843.949219 181.085938 L 847.699219 181.085938 L 847.699219 184.835938 L 843.949219 184.835938 Z M 851.449219 181.085938 L 855.199219 181.085938 L 855.199219 184.835938 L 851.449219 184.835938 Z M 858.949219 181.085938 L 862.699219 181.085938 L 862.699219 184.835938 L 858.949219 184.835938 Z M 866.449219 181.085938 L 870.199219 181.085938 L 870.199219 184.835938 L 866.449219 184.835938 Z M 873.949219 181.085938 L 877.699219 181.085938 L 877.699219 184.835938 L 873.949219 184.835938 Z M 881.449219 181.085938 L 885.199219 181.085938 L 885.199219 184.835938 L 881.449219 184.835938 Z M 888.949219 181.085938 L 892.699219 181.085938 L 892.699219 184.835938 L 888.949219 184.835938 Z M 896.449219 181.085938 L 900.199219 181.085938 L 900.199219 184.835938 L 896.449219 184.835938 Z M 896.449219 181.085938 " fill-opacity="1" fill-rule="nonzero"/><path stroke-linecap="round" transform="matrix(0.75, 0, 0, 0.75, 708.976267, 146.392191)" fill="none" stroke-linejoin="round" d="M 2.500395 2.497912 L 10.000395 -5.002088 L 17.500395 2.497912 L 10.000395 9.997912 Z M 2.500395 2.497912 " stroke="#ffb835" stroke-width="5" stroke-opacity="1" stroke-miterlimit="4"/><path stroke-linecap="round" transform="matrix(0.75, 0, 0, 0.75, 708.976267, 146.392191)" fill="none" stroke-linejoin="round" d="M 270.812908 48.758331 L 263.312908 41.258331 L 255.812907 48.758331 L 263.312908 56.258331 Z M 270.812908 48.758331 " stroke="#ffb835" stroke-width="5" stroke-opacity="1" stroke-miterlimit="4"/><path fill="#ffb835" d="M 1009.652344 364.425781 L 1005.902344 364.425781 L 1005.902344 360.675781 L 1009.652344 360.675781 Z M 1002.152344 364.425781 L 998.402344 364.425781 L 998.402344 360.675781 L 1002.152344 360.675781 Z M 994.652344 364.425781 L 990.902344 364.425781 L 990.902344 360.675781 L 994.652344 360.675781 Z M 987.152344 364.425781 L 983.402344 364.425781 L 983.402344 360.675781 L 987.152344 360.675781 Z M 979.652344 364.425781 L 975.902344 364.425781 L 975.902344 360.675781 L 979.652344 360.675781 Z M 972.152344 364.425781 L 968.402344 364.425781 L 968.402344 360.675781 L 972.152344 360.675781 Z M 964.652344 364.425781 L 960.902344 364.425781 L 960.902344 360.675781 L 964.652344 360.675781 Z M 957.152344 364.425781 L 953.402344 364.425781 L 953.402344 360.675781 L 957.152344 360.675781 Z M 949.652344 364.425781 L 947.40625 364.425781 C 946.847656 364.425781 946.289062 364.40625 945.734375 364.359375 L 946.035156 360.621094 C 946.488281 360.660156 946.945312 360.675781 947.40625 360.675781 L 949.652344 360.675781 Z M 941.683594 363.621094 C 940.355469 363.242188 939.082031 362.730469 937.855469 362.089844 L 939.59375 358.765625 C 940.597656 359.289062 941.636719 359.707031 942.722656 360.019531 Z M 934.414062 359.824219 C 933.34375 358.953125 932.371094 357.988281 931.492188 356.921875 L 934.382812 354.535156 C 935.101562 355.40625 935.902344 356.199219 936.777344 356.910156 Z M 929.199219 353.5 C 928.546875 352.28125 928.027344 351.011719 927.632812 349.6875 L 931.226562 348.621094 C 931.546875 349.699219 931.976562 350.738281 932.507812 351.734375 Z M 926.863281 345.644531 C 926.808594 345.03125 926.78125 344.417969 926.78125 343.800781 L 926.78125 341.707031 L 930.53125 341.707031 L 930.53125 343.800781 C 930.53125 344.308594 930.550781 344.8125 930.597656 345.3125 Z M 926.78125 337.957031 L 926.78125 334.207031 L 930.53125 334.207031 L 930.53125 337.957031 Z M 926.78125 330.457031 L 926.78125 326.707031 L 930.53125 326.707031 L 930.53125 330.457031 Z M 926.78125 322.957031 L 926.78125 319.207031 L 930.53125 319.207031 L 930.53125 322.957031 Z M 926.78125 315.457031 L 926.78125 311.707031 L 930.53125 311.707031 L 930.53125 315.457031 Z M 926.78125 307.957031 L 926.78125 304.207031 L 930.53125 304.207031 L 930.53125 307.957031 Z M 926.78125 300.457031 L 926.78125 296.707031 L 930.53125 296.707031 L 930.53125 300.457031 Z M 926.78125 292.957031 L 926.78125 289.207031 L 930.53125 289.207031 L 930.53125 292.957031 Z M 926.78125 285.457031 L 926.78125 281.707031 L 930.53125 281.707031 L 930.53125 285.457031 Z M 926.78125 277.957031 L 926.78125 274.207031 L 930.53125 274.207031 L 930.53125 277.957031 Z M 926.78125 270.457031 L 926.78125 266.707031 L 930.53125 266.707031 L 930.53125 270.457031 Z M 926.78125 262.957031 L 926.78125 259.207031 L 930.53125 259.207031 L 930.53125 262.957031 Z M 926.78125 255.457031 L 926.78125 251.707031 L 930.53125 251.707031 L 930.53125 255.457031 Z M 926.78125 247.957031 L 926.78125 244.207031 L 930.53125 244.207031 L 930.53125 247.957031 Z M 926.78125 240.457031 L 926.78125 236.707031 L 930.53125 236.707031 L 930.53125 240.457031 Z M 926.78125 232.957031 L 926.78125 229.207031 L 930.53125 229.207031 L 930.53125 232.957031 Z M 926.78125 225.457031 L 926.78125 221.707031 L 930.53125 221.707031 L 930.53125 225.457031 Z M 926.78125 217.957031 L 926.78125 214.207031 L 930.53125 214.207031 L 930.53125 217.957031 Z M 926.78125 210.457031 L 926.78125 206.707031 L 930.53125 206.707031 L 930.53125 210.457031 Z M 926.78125 202.957031 L 926.78125 199.207031 L 930.53125 199.207031 L 930.53125 202.957031 Z M 926.78125 195.457031 L 926.78125 191.707031 L 930.53125 191.707031 L 930.53125 195.457031 Z M 926.78125 187.957031 L 926.78125 184.214844 L 930.53125 184.203125 L 930.53125 187.957031 Z M 926.78125 187.957031 " fill-opacity="1" fill-rule="nonzero"/><path stroke-linecap="round" transform="matrix(0.75, 0, 0, 0.75, 913.959104, 181.085284)" fill="none" stroke-linejoin="round" d="M 141.340993 241.954009 L 133.840993 249.454009 L 126.340992 241.954009 L 133.840993 234.454009 Z M 141.340993 241.954009 " stroke="#ffb835" stroke-width="5" stroke-opacity="1" stroke-miterlimit="4"/><path stroke-linecap="round" transform="matrix(0.75, 0, 0, 0.75, 913.959104, 181.085284)" fill="none" stroke-linejoin="round" d="M 2.502444 2.500872 L 10.002445 10.000872 L 17.502445 2.500872 L 10.002445 -4.999129 Z M 2.502444 2.500872 " stroke="#ffb835" stroke-width="5" stroke-opacity="1" stroke-miterlimit="4"/><path fill="#ffb835" d="M 1023.714844 381.214844 L 1023.714844 384.964844 L 1019.964844 384.964844 L 1019.964844 381.214844 Z M 1023.714844 388.714844 L 1023.714844 392.464844 L 1019.964844 392.464844 L 1019.964844 388.714844 Z M 1023.714844 396.214844 L 1023.714844 399.964844 L 1019.964844 399.964844 L 1019.964844 396.214844 Z M 1023.714844 403.714844 L 1023.714844 407.464844 L 1019.964844 407.464844 L 1019.964844 403.714844 Z M 1023.714844 411.214844 L 1023.714844 414.964844 L 1019.964844 414.964844 L 1019.964844 411.214844 Z M 1023.714844 418.714844 L 1023.714844 422.464844 L 1019.964844 422.464844 L 1019.964844 418.714844 Z M 1023.714844 426.214844 L 1023.714844 429.964844 L 1019.964844 429.964844 L 1019.964844 426.214844 Z M 1023.714844 433.714844 L 1023.714844 437.464844 L 1019.964844 437.464844 L 1019.964844 433.714844 Z M 1023.714844 441.214844 L 1023.714844 444.964844 L 1019.964844 444.964844 L 1019.964844 441.214844 Z M 1023.714844 448.714844 L 1023.714844 452.464844 L 1019.964844 452.464844 L 1019.964844 448.714844 Z M 1023.714844 456.214844 L 1023.714844 459.964844 L 1019.964844 459.964844 L 1019.964844 456.214844 Z M 1023.714844 463.714844 L 1023.714844 467.464844 L 1019.964844 467.464844 L 1019.964844 463.714844 Z M 1023.714844 471.214844 L 1023.714844 474.964844 L 1019.964844 474.964844 L 1019.964844 471.214844 Z M 1023.714844 478.714844 L 1023.714844 482.464844 L 1019.964844 482.464844 L 1019.964844 478.714844 Z M 1023.714844 486.214844 L 1023.714844 489.964844 L 1019.964844 489.964844 L 1019.964844 486.214844 Z M 1023.714844 493.714844 L 1023.714844 497.464844 L 1019.964844 497.464844 L 1019.964844 493.714844 Z M 1023.714844 501.214844 L 1023.714844 504.964844 L 1019.964844 504.964844 L 1019.964844 501.214844 Z M 1023.714844 508.714844 L 1023.714844 512.464844 L 1019.964844 512.464844 L 1019.964844 508.714844 Z M 1023.714844 516.214844 L 1023.714844 519.964844 L 1019.964844 519.964844 L 1019.964844 516.214844 Z M 1023.714844 523.714844 L 1023.714844 527.464844 L 1019.964844 527.464844 L 1019.964844 523.714844 Z M 1023.714844 531.214844 L 1023.714844 534.964844 L 1019.964844 534.964844 L 1019.964844 531.214844 Z M 1023.714844 538.714844 L 1023.714844 542.464844 L 1019.964844 542.464844 L 1019.964844 538.714844 Z M 1023.714844 546.214844 L 1023.714844 549.964844 L 1019.964844 549.964844 L 1019.964844 546.214844 Z M 1023.714844 553.714844 L 1023.714844 557.460938 L 1019.964844 557.480469 L 1019.964844 553.714844 Z M 1024.082031 560.808594 C 1024.316406 561.914062 1024.65625 562.984375 1025.109375 564.019531 L 1021.671875 565.515625 C 1021.117188 564.25 1020.699219 562.9375 1020.414062 561.585938 Z M 1026.757812 566.960938 C 1027.40625 567.886719 1028.140625 568.738281 1028.960938 569.519531 L 1026.375 572.238281 C 1025.375 571.285156 1024.480469 570.242188 1023.6875 569.113281 Z M 1031.625 571.589844 C 1032.582031 572.191406 1033.589844 572.691406 1034.644531 573.089844 L 1033.324219 576.597656 C 1032.03125 576.113281 1030.800781 575.5 1029.628906 574.765625 Z M 1037.898438 573.953125 C 1038.785156 574.09375 1039.683594 574.164062 1040.589844 574.164062 L 1041.355469 574.164062 L 1041.355469 577.914062 L 1040.589844 577.914062 C 1039.484375 577.914062 1038.390625 577.828125 1037.304688 577.65625 Z M 1045.105469 574.164062 L 1048.855469 574.164062 L 1048.855469 577.914062 L 1045.105469 577.914062 Z M 1052.605469 574.164062 L 1056.355469 574.164062 L 1056.355469 577.914062 L 1052.605469 577.914062 Z M 1060.105469 574.164062 L 1063.855469 574.164062 L 1063.855469 577.914062 L 1060.105469 577.914062 Z M 1067.605469 574.164062 L 1071.355469 574.164062 L 1071.355469 577.914062 L 1067.605469 577.914062 Z M 1075.105469 574.164062 L 1078.855469 574.164062 L 1078.855469 577.914062 L 1075.105469 577.914062 Z M 1082.605469 574.164062 L 1086.355469 574.164062 L 1086.355469 577.914062 L 1082.605469 577.914062 Z M 1090.105469 574.164062 L 1093.855469 574.164062 L 1093.855469 577.914062 L 1090.105469 577.914062 Z M 1097.605469 574.164062 L 1101.355469 574.164062 L 1101.355469 577.914062 L 1097.605469 577.914062 Z M 1105.105469 574.164062 L 1108.855469 574.164062 L 1108.855469 577.914062 L 1105.105469 577.914062 Z M 1112.605469 574.164062 L 1116.355469 574.164062 L 1116.355469 577.914062 L 1112.605469 577.914062 Z M 1120.105469 574.164062 L 1123.855469 574.164062 L 1123.855469 577.914062 L 1120.105469 577.914062 Z M 1127.605469 574.164062 L 1131.355469 574.164062 L 1131.355469 577.914062 L 1127.605469 577.914062 Z M 1135.105469 574.164062 L 1138.855469 574.164062 L 1138.855469 577.914062 L 1135.105469 577.914062 Z M 1142.605469 574.164062 L 1146.355469 574.164062 L 1146.355469 577.914062 L 1142.605469 577.914062 Z M 1150.105469 574.164062 L 1153.855469 574.164062 L 1153.855469 577.914062 L 1150.105469 577.914062 Z M 1157.605469 574.164062 L 1161.355469 574.164062 L 1161.355469 577.914062 L 1157.605469 577.914062 Z M 1165.105469 574.164062 L 1168.855469 574.164062 L 1168.855469 577.914062 L 1165.105469 577.914062 Z M 1172.605469 574.164062 L 1176.355469 574.164062 L 1176.355469 577.914062 L 1172.605469 577.914062 Z M 1180.105469 574.164062 L 1183.855469 574.164062 L 1183.855469 577.914062 L 1180.105469 577.914062 Z M 1187.605469 574.164062 L 1191.355469 574.164062 L 1191.355469 577.914062 L 1187.605469 577.914062 Z M 1195.105469 574.164062 L 1198.855469 574.164062 L 1198.855469 577.914062 L 1195.105469 577.914062 Z M 1202.605469 574.164062 L 1206.355469 574.164062 L 1206.355469 577.914062 L 1202.605469 577.914062 Z M 1209.921875 574.066406 C 1211.042969 573.941406 1212.140625 573.710938 1213.214844 573.367188 L 1214.355469 576.941406 C 1213.042969 577.359375 1211.699219 577.644531 1210.328125 577.792969 Z M 1216.304688 572.027344 C 1217.289062 571.476562 1218.207031 570.832031 1219.066406 570.09375 L 1221.511719 572.9375 C 1220.464844 573.835938 1219.339844 574.625 1218.136719 575.296875 Z M 1221.394531 567.652344 C 1222.089844 566.757812 1222.6875 565.808594 1223.191406 564.796875 L 1226.546875 566.46875 C 1225.933594 567.703125 1225.203125 568.863281 1224.351562 569.953125 Z M 1224.378906 561.644531 C 1224.671875 560.558594 1224.847656 559.449219 1224.917969 558.320312 L 1228.660156 558.542969 C 1228.578125 559.925781 1228.359375 561.28125 1228.003906 562.609375 Z M 1224.949219 554.664062 L 1224.949219 550.914062 L 1228.699219 550.914062 L 1228.699219 554.664062 Z M 1224.949219 547.164062 L 1224.949219 543.414062 L 1228.699219 543.414062 L 1228.699219 547.164062 Z M 1224.949219 539.664062 L 1224.949219 535.914062 L 1228.699219 535.914062 L 1228.699219 539.664062 Z M 1224.949219 532.164062 L 1224.949219 528.414062 L 1228.699219 528.414062 L 1228.699219 532.164062 Z M 1224.949219 524.664062 L 1224.949219 520.914062 L 1228.699219 520.914062 L 1228.699219 524.664062 Z M 1224.949219 517.164062 L 1224.949219 513.414062 L 1228.699219 513.414062 L 1228.699219 517.164062 Z M 1224.949219 509.664062 L 1224.949219 505.914062 L 1228.699219 505.914062 L 1228.699219 509.664062 Z M 1224.949219 502.164062 L 1224.949219 498.414062 L 1228.699219 498.414062 L 1228.699219 502.164062 Z M 1224.949219 494.664062 L 1224.949219 490.914062 L 1228.699219 490.914062 L 1228.699219 494.664062 Z M 1224.949219 487.164062 L 1224.949219 483.414062 L 1228.699219 483.414062 L 1228.699219 487.164062 Z M 1224.949219 479.664062 L 1224.949219 475.914062 L 1228.699219 475.914062 L 1228.699219 479.664062 Z M 1224.949219 472.164062 L 1224.949219 468.414062 L 1228.699219 468.414062 L 1228.699219 472.164062 Z M 1224.949219 464.664062 L 1224.949219 460.914062 L 1228.699219 460.914062 L 1228.699219 464.664062 Z M 1224.949219 457.164062 L 1224.949219 453.414062 L 1228.699219 453.414062 L 1228.699219 457.164062 Z M 1224.949219 449.664062 L 1224.949219 445.914062 L 1228.699219 445.914062 L 1228.699219 449.664062 Z M 1224.949219 442.164062 L 1224.949219 438.414062 L 1228.699219 438.414062 L 1228.699219 442.164062 Z M 1224.949219 434.664062 L 1224.949219 430.914062 L 1228.699219 430.914062 L 1228.699219 434.664062 Z M 1224.949219 427.164062 L 1224.949219 423.414062 L 1228.699219 423.414062 L 1228.699219 427.164062 Z M 1224.949219 419.664062 L 1224.949219 415.914062 L 1228.699219 415.914062 L 1228.699219 419.664062 Z M 1224.949219 412.164062 L 1224.949219 408.414062 L 1228.699219 408.414062 L 1228.699219 412.164062 Z M 1224.949219 404.664062 L 1224.949219 400.914062 L 1228.699219 400.914062 L 1228.699219 404.664062 Z M 1224.949219 397.164062 L 1224.949219 393.414062 L 1228.699219 393.414062 L 1228.699219 397.164062 Z M 1224.949219 389.664062 L 1224.949219 385.914062 L 1228.699219 385.914062 L 1228.699219 389.664062 Z M 1224.949219 382.164062 L 1224.949219 378.414062 L 1228.699219 378.414062 L 1228.699219 382.164062 Z M 1224.949219 374.664062 L 1224.949219 370.914062 L 1228.699219 370.914062 L 1228.699219 374.664062 Z M 1224.949219 367.164062 L 1224.949219 363.414062 L 1228.699219 363.414062 L 1228.699219 367.164062 Z M 1224.949219 359.664062 L 1224.949219 355.914062 L 1228.699219 355.914062 L 1228.699219 359.664062 Z M 1224.949219 352.164062 L 1224.949219 348.414062 L 1228.699219 348.414062 L 1228.699219 352.164062 Z M 1224.949219 344.664062 L 1224.949219 340.914062 L 1228.699219 340.914062 L 1228.699219 344.664062 Z M 1224.949219 337.164062 L 1224.949219 333.414062 L 1228.699219 333.414062 L 1228.699219 337.164062 Z M 1224.949219 329.664062 L 1224.949219 325.914062 L 1228.699219 325.914062 L 1228.699219 329.664062 Z M 1224.949219 322.164062 L 1224.949219 318.414062 L 1228.699219 318.414062 L 1228.699219 322.164062 Z M 1224.949219 314.664062 L 1224.949219 310.914062 L 1228.699219 310.914062 L 1228.699219 314.664062 Z M 1224.949219 307.164062 L 1224.949219 303.414062 L 1228.699219 303.414062 L 1228.699219 307.164062 Z M 1224.949219 299.664062 L 1224.949219 295.914062 L 1228.699219 295.914062 L 1228.699219 299.664062 Z M 1224.949219 292.164062 L 1224.949219 288.414062 L 1228.699219 288.414062 L 1228.699219 292.164062 Z M 1224.949219 284.664062 L 1224.949219 280.914062 L 1228.699219 280.914062 L 1228.699219 284.664062 Z M 1224.949219 277.164062 L 1224.949219 273.414062 L 1228.699219 273.414062 L 1228.699219 277.164062 Z M 1224.949219 269.664062 L 1224.949219 265.914062 L 1228.699219 265.914062 L 1228.699219 269.664062 Z M 1224.949219 262.164062 L 1224.949219 258.414062 L 1228.699219 258.414062 L 1228.699219 262.164062 Z M 1224.949219 254.664062 L 1224.949219 250.914062 L 1228.699219 250.914062 L 1228.699219 254.664062 Z M 1224.949219 247.164062 L 1224.949219 243.414062 L 1228.699219 243.414062 L 1228.699219 247.164062 Z M 1224.949219 239.664062 L 1224.949219 235.914062 L 1228.699219 235.914062 L 1228.699219 239.664062 Z M 1224.949219 232.164062 L 1224.949219 228.414062 L 1228.699219 228.414062 L 1228.699219 232.164062 Z M 1224.949219 224.664062 L 1224.949219 220.914062 L 1228.699219 220.914062 L 1228.699219 224.664062 Z M 1224.949219 217.164062 L 1224.949219 213.414062 L 1228.699219 213.414062 L 1228.699219 217.164062 Z M 1224.949219 209.664062 L 1224.949219 205.914062 L 1228.699219 205.914062 L 1228.699219 209.664062 Z M 1224.949219 202.164062 L 1224.949219 198.414062 L 1228.699219 198.414062 L 1228.699219 202.164062 Z M 1224.949219 194.664062 L 1224.949219 193.648438 L 1228.699219 193.648438 L 1228.699219 194.664062 Z M 1224.949219 194.664062 " fill-opacity="1" fill-rule="nonzero"/><path stroke-linecap="round" transform="matrix(0.75, 0, 0, 0.75, 1019.964795, 181.460284)" fill="none" stroke-linejoin="round" d="M 2.500065 252.589426 L 10.000066 260.089427 L 2.500065 267.589427 L -4.999935 260.089427 Z M 2.500065 252.589426 " stroke="#ffb835" stroke-width="5" stroke-opacity="1" stroke-miterlimit="4"/><path stroke-linecap="round" transform="matrix(0.75, 0, 0, 0.75, 1019.964795, 181.460284)" fill="none" stroke-linejoin="round" d="M 275.812579 2.500872 L 268.312579 10.000872 L 275.812579 17.500873 L 283.312579 10.000872 Z M 275.812579 2.500872 " stroke="#ffb835" stroke-width="5" stroke-opacity="1" stroke-miterlimit="4"/><path fill="#ffb835" d="M 1427.8125 84.464844 L 1424.0625 84.464844 L 1424.0625 80.714844 L 1427.8125 80.714844 Z M 1420.3125 84.464844 L 1416.5625 84.464844 L 1416.5625 80.714844 L 1420.3125 80.714844 Z M 1412.8125 84.464844 L 1409.0625 84.464844 L 1409.0625 80.714844 L 1412.8125 80.714844 Z M 1405.3125 84.464844 L 1401.5625 84.464844 L 1401.5625 80.714844 L 1405.3125 80.714844 Z M 1397.8125 84.464844 L 1394.0625 84.464844 L 1394.0625 80.714844 L 1397.8125 80.714844 Z M 1390.3125 84.464844 L 1386.5625 84.464844 L 1386.5625 80.714844 L 1390.3125 80.714844 Z M 1382.8125 84.464844 L 1379.0625 84.464844 L 1379.0625 80.714844 L 1382.8125 80.714844 Z M 1375.3125 84.464844 L 1371.5625 84.464844 L 1371.5625 80.714844 L 1375.3125 80.714844 Z M 1367.8125 84.464844 L 1364.0625 84.464844 L 1364.0625 80.714844 L 1367.8125 80.714844 Z M 1360.3125 84.464844 L 1356.5625 84.464844 L 1356.5625 80.714844 L 1360.3125 80.714844 Z M 1352.8125 84.464844 L 1349.0625 84.464844 L 1349.0625 80.714844 L 1352.8125 80.714844 Z M 1345.3125 84.464844 L 1341.5625 84.464844 L 1341.5625 80.714844 L 1345.3125 80.714844 Z M 1337.8125 84.464844 L 1335.683594 84.464844 C 1335.1875 84.464844 1334.695312 84.488281 1334.207031 84.527344 L 1333.882812 80.792969 C 1334.480469 80.742188 1335.082031 80.714844 1335.683594 80.714844 L 1337.8125 80.714844 Z M 1330.898438 85.152344 C 1329.816406 85.472656 1328.777344 85.898438 1327.78125 86.425781 L 1326.019531 83.117188 C 1327.242188 82.46875 1328.511719 81.949219 1329.835938 81.558594 Z M 1324.976562 88.296875 C 1324.101562 89.015625 1323.308594 89.8125 1322.59375 90.691406 L 1319.6875 88.320312 C 1320.558594 87.25 1321.527344 86.277344 1322.59375 85.402344 Z M 1320.734375 93.503906 C 1320.210938 94.503906 1319.789062 95.542969 1319.476562 96.625 L 1315.875 95.582031 C 1316.257812 94.257812 1316.773438 92.980469 1317.414062 91.757812 Z M 1318.867188 99.9375 C 1318.828125 100.402344 1318.808594 100.871094 1318.808594 101.339844 L 1318.808594 103.554688 L 1315.058594 103.554688 L 1315.058594 101.339844 C 1315.058594 100.769531 1315.082031 100.199219 1315.128906 99.632812 Z M 1318.808594 107.304688 L 1318.808594 111.054688 L 1315.058594 111.054688 L 1315.058594 107.304688 Z M 1318.808594 114.804688 L 1318.808594 118.554688 L 1315.058594 118.554688 L 1315.058594 114.804688 Z M 1318.808594 122.304688 L 1318.808594 126.054688 L 1315.058594 126.054688 L 1315.058594 122.304688 Z M 1318.808594 129.804688 L 1318.808594 133.554688 L 1315.058594 133.554688 L 1315.058594 129.804688 Z M 1318.808594 137.304688 L 1318.808594 141.054688 L 1315.058594 141.054688 L 1315.058594 137.304688 Z M 1318.808594 144.804688 L 1318.808594 148.554688 L 1315.058594 148.554688 L 1315.058594 144.804688 Z M 1318.808594 152.304688 L 1318.808594 156.054688 L 1315.058594 156.054688 L 1315.058594 152.304688 Z M 1318.808594 159.804688 L 1318.808594 162.710938 C 1318.808594 163.023438 1318.800781 163.339844 1318.789062 163.652344 L 1315.042969 163.484375 C 1315.054688 163.226562 1315.058594 162.96875 1315.058594 162.710938 L 1315.058594 159.804688 Z M 1318.195312 167.726562 C 1317.859375 169.066406 1317.394531 170.359375 1316.796875 171.605469 L 1313.414062 169.988281 C 1313.902344 168.96875 1314.28125 167.914062 1314.554688 166.816406 Z M 1314.652344 175.128906 C 1313.824219 176.230469 1312.890625 177.238281 1311.855469 178.152344 L 1309.371094 175.34375 C 1310.214844 174.597656 1310.980469 173.769531 1311.660156 172.867188 Z M 1308.515625 180.5625 C 1307.320312 181.257812 1306.070312 181.824219 1304.761719 182.261719 L 1303.566406 178.710938 C 1304.636719 178.351562 1305.660156 177.886719 1306.636719 177.320312 Z M 1300.746094 183.175781 C 1299.898438 183.28125 1299.042969 183.335938 1298.183594 183.335938 L 1296.75 183.335938 L 1296.75 179.585938 L 1298.183594 179.585938 C 1298.890625 179.585938 1299.589844 179.542969 1300.285156 179.457031 Z M 1293 183.335938 L 1289.25 183.335938 L 1289.25 179.585938 L 1293 179.585938 Z M 1285.5 183.335938 L 1281.75 183.335938 L 1281.75 179.585938 L 1285.5 179.585938 Z M 1278 183.335938 L 1274.25 183.335938 L 1274.25 179.585938 L 1278 179.585938 Z M 1270.5 183.335938 L 1266.75 183.335938 L 1266.75 179.585938 L 1270.5 179.585938 Z M 1263 183.335938 L 1259.25 183.335938 L 1259.25 179.585938 L 1263 179.585938 Z M 1255.5 183.335938 L 1251.75 183.335938 L 1251.75 179.585938 L 1255.5 179.585938 Z M 1248 183.335938 L 1244.25 183.335938 L 1244.25 179.585938 L 1248 179.585938 Z M 1240.5 183.335938 L 1239.011719 183.335938 L 1239.011719 179.585938 L 1240.5 179.585938 Z M 1240.5 183.335938 " fill-opacity="1" fill-rule="nonzero"/><path stroke-linecap="round" transform="matrix(0.75, 0, 0, 0.75, 1226.822633, 80.71523)" fill="none" stroke-linejoin="round" d="M 281.736504 2.499486 L 274.236504 9.999486 L 266.736503 2.499486 L 274.236504 -5.000515 Z M 281.736504 2.499486 " stroke="#ffb835" stroke-width="5" stroke-opacity="1" stroke-miterlimit="4"/><path stroke-linecap="round" transform="matrix(0.75, 0, 0, 0.75, 1226.822633, 80.71523)" fill="none" stroke-linejoin="round" d="M 2.502115 134.327617 L 10.002115 141.827618 L 17.502116 134.327617 L 10.002115 126.827617 Z M 2.502115 134.327617 " stroke="#ffb835" stroke-width="5" stroke-opacity="1" stroke-miterlimit="4"/></svg>